<?xml version="1.0" standalone="no"?>
<!DOCTYPE svg PUBLIC "-//W3C//DTD SVG 20010904//EN"
 "http://www.w3.org/TR/2001/REC-SVG-20010904/DTD/svg10.dtd">
<svg version="1.0" xmlns="http://www.w3.org/2000/svg"
 width="260.000000pt" height="260.000000pt" viewBox="0 0 260.000000 260.000000"
 preserveAspectRatio="xMidYMid meet">
<metadata>
Created by potrace 1.14, written by Peter Selinger 2001-2017
</metadata>
<g transform="translate(0.000000,260.000000) scale(0.100000,-0.100000)"
fill="#000000" stroke="none">
<path d="M420 1670 l0 -50 120 0 120 0 0 -355 0 -355 50 0 50 0 0 355 0 355
125 0 125 0 0 50 0 50 -295 0 -295 0 0 -50z"/>
<path d="M1120 1315 l0 -405 50 0 50 0 0 405 0 405 -50 0 -50 0 0 -405z"/>
<path d="M1400 1315 l0 -405 50 0 50 0 2 324 3 324 120 -219 c95 -172 124
-219 140 -219 16 0 45 44 140 218 l120 217 3 -322 2 -323 55 0 55 0 0 405 0
406 -62 -3 -62 -3 -118 -204 c-64 -112 -121 -208 -126 -213 -6 -6 -59 77 -133
206 l-124 216 -57 0 -58 0 0 -405z"/>
</g>
</svg>
